<svg width="114" height="23" viewBox="0 0 114 23" fill="#fff" xmlns="http://www.w3.org/2000/svg">
<path d="M0.159091 2.42045V0.545454H13.25V2.42045H7.76136V18H5.64773V2.42045H0.159091ZM18.3104 18.3068C17.4808 18.3068 16.728 18.1506 16.0518 17.8381C15.3757 17.5199 14.8388 17.0625 14.4411 16.4659C14.0433 15.8636 13.8445 15.1364 13.8445 14.2841C13.8445 13.5341 13.9922 12.9261 14.2876 12.4602C14.5831 11.9886 14.978 11.6193 15.4723 11.3523C15.9666 11.0852 16.5121 10.8864 17.1087 10.7557C17.7109 10.6193 18.3161 10.5114 18.924 10.4318C19.7195 10.3295 20.3643 10.2528 20.8587 10.2017C21.3587 10.1449 21.7223 10.0511 21.9496 9.92045C22.1825 9.78977 22.299 9.5625 22.299 9.23864V9.17045C22.299 8.32955 22.0689 7.67614 21.6087 7.21023C21.1541 6.74432 20.4638 6.51136 19.5376 6.51136C18.5774 6.51136 17.8246 6.72159 17.2791 7.14205C16.7337 7.5625 16.3501 8.01136 16.1286 8.48864L14.2195 7.80682C14.5604 7.01136 15.0149 6.39205 15.5831 5.94886C16.157 5.5 16.782 5.1875 17.4581 5.01136C18.1399 4.82955 18.8104 4.73864 19.4695 4.73864C19.8899 4.73864 20.3729 4.78977 20.9183 4.89204C21.4695 4.98864 22.0007 5.19034 22.5121 5.49716C23.0291 5.80398 23.4581 6.26705 23.799 6.88636C24.1399 7.50568 24.3104 8.33523 24.3104 9.375V18H22.299V16.2273H22.1967C22.0604 16.5114 21.8331 16.8153 21.5149 17.1392C21.1967 17.4631 20.7734 17.7386 20.245 17.9659C19.7166 18.1932 19.0717 18.3068 18.3104 18.3068ZM18.6172 16.5C19.4126 16.5 20.0831 16.3438 20.6286 16.0312C21.1797 15.7188 21.5945 15.3153 21.8729 14.821C22.157 14.3267 22.299 13.8068 22.299 13.2614V11.4205C22.2138 11.5227 22.0263 11.6165 21.7365 11.7017C21.4524 11.7812 21.1229 11.8523 20.7479 11.9148C20.3786 11.9716 20.0178 12.0227 19.6655 12.0682C19.3189 12.108 19.0376 12.142 18.8217 12.1705C18.299 12.2386 17.8104 12.3494 17.3558 12.5028C16.907 12.6506 16.5433 12.875 16.2649 13.1761C15.9922 13.4716 15.8558 13.875 15.8558 14.3864C15.8558 15.0852 16.1143 15.6136 16.6314 15.9716C17.1541 16.3239 17.8161 16.5 18.6172 16.5ZM37.2543 7.84091L35.4474 8.35227C35.3338 8.05114 35.1662 7.75852 34.9446 7.47443C34.7287 7.18466 34.4332 6.94602 34.0582 6.75852C33.6832 6.57102 33.2031 6.47727 32.6179 6.47727C31.8168 6.47727 31.1491 6.66193 30.6151 7.03125C30.0866 7.39489 29.8224 7.85795 29.8224 8.42045C29.8224 8.92045 30.0043 9.31534 30.3679 9.60511C30.7315 9.89489 31.2997 10.1364 32.0724 10.3295L34.0156 10.8068C35.1861 11.0909 36.0582 11.5256 36.6321 12.1108C37.206 12.6903 37.4929 13.4375 37.4929 14.3523C37.4929 15.1023 37.277 15.7727 36.8452 16.3636C36.419 16.9545 35.8224 17.4205 35.0554 17.7614C34.2884 18.1023 33.3963 18.2727 32.3793 18.2727C31.044 18.2727 29.9389 17.983 29.0639 17.4034C28.1889 16.8239 27.6349 15.9773 27.402 14.8636L29.3111 14.3864C29.4929 15.0909 29.8366 15.6193 30.3423 15.9716C30.8537 16.3239 31.5213 16.5 32.3452 16.5C33.2827 16.5 34.027 16.3011 34.5781 15.9034C35.1349 15.5 35.4134 15.017 35.4134 14.4545C35.4134 14 35.2543 13.6193 34.9361 13.3125C34.6179 13 34.1293 12.767 33.4702 12.6136L31.2884 12.1023C30.0895 11.8182 29.2088 11.3778 28.6463 10.7812C28.0895 10.179 27.8111 9.42614 27.8111 8.52273C27.8111 7.78409 28.0185 7.13068 28.4332 6.5625C28.8537 5.99432 29.4247 5.5483 30.1463 5.22443C30.8736 4.90057 31.6974 4.73864 32.6179 4.73864C33.9134 4.73864 34.9304 5.02273 35.669 5.59091C36.4134 6.15909 36.9418 6.90909 37.2543 7.84091ZM42.3956 13.2273L42.3615 10.7386H42.7706L48.4979 4.90909H50.9865L44.8842 11.0795H44.7138L42.3956 13.2273ZM40.5206 18V0.545454H42.532V18H40.5206ZM48.8388 18L43.7251 11.5227L45.157 10.125L51.3956 18H48.8388ZM55.0412 18.1364C54.6207 18.1364 54.2599 17.9858 53.9588 17.6847C53.6577 17.3835 53.5071 17.0227 53.5071 16.6023C53.5071 16.1818 53.6577 15.821 53.9588 15.5199C54.2599 15.2187 54.6207 15.0682 55.0412 15.0682C55.4616 15.0682 55.8224 15.2187 56.1236 15.5199C56.4247 15.821 56.5753 16.1818 56.5753 16.6023C56.5753 16.8807 56.5043 17.1364 56.3622 17.3693C56.2259 17.6023 56.0412 17.7898 55.8082 17.9318C55.581 18.0682 55.3253 18.1364 55.0412 18.1364ZM70.0028 4.90909C69.9006 4.04545 69.4858 3.375 68.7585 2.89773C68.0313 2.42045 67.1392 2.18182 66.0824 2.18182C65.3097 2.18182 64.6335 2.30682 64.054 2.55682C63.4801 2.80682 63.0313 3.15057 62.7074 3.58807C62.3892 4.02557 62.2301 4.52273 62.2301 5.07954C62.2301 5.54545 62.3409 5.94602 62.5625 6.28125C62.7898 6.6108 63.0795 6.88636 63.4318 7.10795C63.7841 7.32386 64.1534 7.50284 64.5398 7.64489C64.9261 7.78125 65.2812 7.89205 65.6051 7.97727L67.3778 8.45455C67.8324 8.57386 68.3381 8.73864 68.8949 8.94886C69.4574 9.15909 69.9943 9.44602 70.5057 9.80966C71.0227 10.1676 71.4489 10.6278 71.7841 11.1903C72.1193 11.7528 72.2869 12.4432 72.2869 13.2614C72.2869 14.2045 72.0398 15.0568 71.5455 15.8182C71.0568 16.5795 70.3409 17.1847 69.3977 17.6335C68.4602 18.0824 67.321 18.3068 65.9801 18.3068C64.7301 18.3068 63.6477 18.1051 62.733 17.7017C61.8239 17.2983 61.108 16.7358 60.5852 16.0142C60.0682 15.2926 59.7756 14.4545 59.7074 13.5H61.8892C61.946 14.1591 62.1676 14.7045 62.554 15.1364C62.946 15.5625 63.4403 15.8807 64.0369 16.0909C64.6392 16.2955 65.2869 16.3977 65.9801 16.3977C66.7869 16.3977 67.5114 16.267 68.1534 16.0057C68.7955 15.7386 69.304 15.3693 69.679 14.8977C70.054 14.4205 70.2415 13.8636 70.2415 13.2273C70.2415 12.6477 70.0795 12.1761 69.7557 11.8125C69.4318 11.4489 69.0057 11.1534 68.4773 10.9261C67.9489 10.6989 67.3778 10.5 66.7642 10.3295L64.6165 9.71591C63.2528 9.32386 62.1733 8.7642 61.3778 8.03693C60.5824 7.30966 60.1847 6.35795 60.1847 5.18182C60.1847 4.20454 60.4489 3.35227 60.9773 2.625C61.5114 1.89205 62.2273 1.32386 63.125 0.920454C64.0284 0.511363 65.0369 0.306818 66.1506 0.306818C67.2756 0.306818 68.2756 0.508522 69.1506 0.911931C70.0256 1.30966 70.7188 1.85511 71.2301 2.54829C71.7472 3.24148 72.0199 4.02841 72.0483 4.90909H70.0028ZM76.7848 22.9091C76.4439 22.9091 76.1399 22.8807 75.8729 22.8239C75.6058 22.7727 75.4212 22.7216 75.3189 22.6705L75.8303 20.8977C76.3189 21.0227 76.7507 21.0682 77.1257 21.0341C77.5007 21 77.8331 20.8324 78.1229 20.5312C78.4183 20.2358 78.6882 19.7557 78.9325 19.0909L79.3075 18.0682L74.4666 4.90909H76.6484L80.2621 15.3409H80.3984L84.0121 4.90909H86.1939L80.6371 19.9091C80.3871 20.5852 80.0774 21.1449 79.7081 21.5881C79.3388 22.0369 78.9098 22.3693 78.4212 22.5852C77.9382 22.8011 77.3928 22.9091 76.7848 22.9091ZM90.8601 10.125V18H88.8487V4.90909H90.7919V6.95455H90.9624C91.2692 6.28977 91.7351 5.75568 92.3601 5.35227C92.9851 4.94318 93.7919 4.73864 94.7805 4.73864C95.6669 4.73864 96.4425 4.92045 97.1072 5.28409C97.772 5.64205 98.2891 6.1875 98.6584 6.92045C99.0277 7.64773 99.2124 8.56818 99.2124 9.68182V18H97.201V9.81818C97.201 8.78977 96.9339 7.98864 96.3999 7.41477C95.8658 6.83523 95.1328 6.54545 94.201 6.54545C93.5589 6.54545 92.9851 6.68466 92.4794 6.96307C91.9794 7.24148 91.5845 7.64773 91.2947 8.18182C91.005 8.71591 90.8601 9.36364 90.8601 10.125ZM108.206 18.2727C106.979 18.2727 105.922 17.983 105.036 17.4034C104.149 16.8239 103.467 16.0256 102.99 15.0085C102.513 13.9915 102.274 12.8295 102.274 11.5227C102.274 10.1932 102.518 9.01989 103.007 8.00284C103.501 6.98011 104.189 6.18182 105.07 5.60795C105.956 5.02841 106.99 4.73864 108.172 4.73864C109.092 4.73864 109.922 4.90909 110.661 5.25C111.399 5.59091 112.004 6.06818 112.476 6.68182C112.947 7.29545 113.24 8.01136 113.354 8.82955H111.342C111.189 8.23295 110.848 7.70455 110.32 7.24432C109.797 6.77841 109.092 6.54545 108.206 6.54545C107.422 6.54545 106.734 6.75 106.143 7.15909C105.558 7.5625 105.101 8.13352 104.771 8.87216C104.447 9.60511 104.286 10.4659 104.286 11.4545C104.286 12.4659 104.445 13.3466 104.763 14.0966C105.087 14.8466 105.541 15.429 106.126 15.8438C106.717 16.2585 107.411 16.4659 108.206 16.4659C108.729 16.4659 109.203 16.375 109.629 16.1932C110.055 16.0114 110.416 15.75 110.712 15.4091C111.007 15.0682 111.217 14.6591 111.342 14.1818H113.354C113.24 14.9545 112.959 15.6506 112.51 16.2699C112.067 16.8835 111.479 17.3722 110.746 17.7358C110.018 18.0938 109.172 18.2727 108.206 18.2727Z" fill="black"/>
</svg>
