<svg xmlns="http://www.w3.org/2000/svg" xmlns:xlink="http://www.w3.org/1999/xlink" version="1.1"
    x="0px" y="0px" viewBox="0 0 100 100" style="enable-background:new 0 0 100 100;"
    xml:space="preserve">
    <path fill="#FFF" d="M50,94.5c-24.5,0-44.5-20-44.5-44.5S25.5,5.5,50,5.5s44.5,20,44.5,44.5S74.5,94.5,50,94.5z M50,13.2  c-20.3,0-36.8,16.5-36.8,36.8c0,20.3,16.5,36.8,36.8,36.8c20.3,0,36.8-16.5,36.8-36.8C86.8,29.7,70.3,13.2,50,13.2z"/>
    <path fill="#FFF" d="M55.5,50l9.4-9.4c1.5-1.5,1.5-3.9,0-5.5c-1.5-1.5-3.9-1.5-5.5,0L50,44.5l-9.4-9.4c-1.5-1.5-3.9-1.5-5.5,0  c-1.5,1.5-1.5,3.9,0,5.5l9.4,9.4l-9.4,9.4c-1.5,1.5-1.5,3.9,0,5.5c0.8,0.8,1.7,1.1,2.7,1.1c1,0,2-0.4,2.7-1.1l9.4-9.4l9.4,9.4  c0.8,0.8,1.7,1.1,2.7,1.1c1,0,2-0.4,2.7-1.1c1.5-1.5,1.5-3.9,0-5.5L55.5,50z"/>
</svg>